<?xml version="1.0" standalone="no"?><!DOCTYPE svg PUBLIC "-//W3C//DTD SVG 1.1//EN" "http://www.w3.org/Graphics/SVG/1.1/DTD/svg11.dtd"><svg t="1749956717616" class="icon" viewBox="0 0 1042 1024" version="1.1" xmlns="http://www.w3.org/2000/svg" p-id="3918" xmlns:xlink="http://www.w3.org/1999/xlink" width="203.515625" height="200"><path d="M442.514286 420.571429c-5.485714-18.285714-9.142857-36.571429-14.628572-54.857143-10.971429 45.714286-23.771429 95.085714-36.571428 138.971428l-12.8 43.885715H475.428571l-12.8-43.885715c-5.485714-27.428571-12.8-56.685714-20.114285-84.114285z" fill="#1296db" p-id="3919"></path><path d="M965.485714 329.142857V109.714286c0-20.114286-16.457143-36.571429-36.571428-36.571429h-219.428572v73.142857h-365.714285V73.142857h-219.428572c-20.114286 0-36.571429 16.457143-36.571428 36.571429v219.428571h73.142857v365.714286h-73.142857v219.428571c0 20.114286 16.457143 36.571429 36.571428 36.571429h219.428572v-73.142857h365.714285v73.142857h219.428572c20.114286 0 36.571429-16.457143 36.571428-36.571429V694.857143h-73.142857V329.142857h73.142857zM625.371429 733.257143l-1.828572 1.828571H530.285714c-1.828571 0-1.828571 0-1.828571-1.828571L497.371429 621.714286h-137.142858L329.142857 733.257143c0 1.828571-1.828571 1.828571-1.828571 1.828571H237.714286s-1.828571 0-1.828572-1.828571V731.428571l140.8-440.685714c0-1.828571 1.828571-1.828571 1.828572-1.828571h104.228571c1.828571 0 1.828571 0 1.828572 1.828571L625.371429 731.428571v1.828572z m140.8-1.828572c0 1.828571-1.828571 1.828571-3.657143 1.828572h-87.771429c-1.828571 0-3.657143-1.828571-3.657143-1.828572V290.742857c0-1.828571 1.828571-1.828571 3.657143-1.828571h87.771429c1.828571 0 3.657143 1.828571 3.657143 1.828571V731.428571z" fill="#1296db" p-id="3920"></path></svg>