<?xml version="1.0" standalone="no"?><!DOCTYPE svg PUBLIC "-//W3C//DTD SVG 1.1//EN" "http://www.w3.org/Graphics/SVG/1.1/DTD/svg11.dtd"><svg t="1754120946069" class="icon" viewBox="0 0 1024 1024" version="1.1" xmlns="http://www.w3.org/2000/svg" p-id="6725" xmlns:xlink="http://www.w3.org/1999/xlink" width="200" height="200"><path d="M511.80544 972.76416a460.8 460.8 0 1 1 460.62592-460.8 460.71296 460.71296 0 0 1-460.62592 460.8z m0-864a403.10272 403.10272 0 0 0-259.0976 711.85408v8.14592h10.30656a401.3568 401.3568 0 0 0 497.57696 0h10.3168v-8.14592A403.10272 403.10272 0 0 0 511.80544 108.76416z m259.10272 403.2a259.10272 259.10272 0 1 0-518.20032 0H195.11808a316.68224 316.68224 0 1 1 633.344 0h-57.55392z m-267.07456 116.01408l67.64032-267.19744a27.96544 27.96544 0 0 1 34.39616-21.02784 29.952 29.952 0 0 1 19.8656 36.41856l-67.072 264.97024a86.67648 86.67648 0 1 1-54.83008-13.16352zM483.01568 742.4h57.57952v-57.64608H483.01568V742.4z" p-id="6726" fill="#ffffff"></path></svg>