<?xml version="1.0" standalone="no"?><!DOCTYPE svg PUBLIC "-//W3C//DTD SVG 1.1//EN" "http://www.w3.org/Graphics/SVG/1.1/DTD/svg11.dtd"><svg t="1745735826747" class="icon" viewBox="0 0 1024 1024" version="1.1" xmlns="http://www.w3.org/2000/svg" p-id="2261" xmlns:xlink="http://www.w3.org/1999/xlink" width="200" height="200"><path d="M549.336615 940.977231a24954.171077 24954.171077 0 0 0-245.484307-144.777846c-86.252308-50.963692-163.682462-99.446154-171.204923-108.268308C118.153846 672.177231 118.153846 671.586462 118.153846 451.899077c0-208.974769 0.630154-220.317538 11.972923-231.620923 19.495385-19.534769 350.601846-214.646154 370.727385-218.427077 22.685538-4.411077 10.712615-10.712615 217.166769 110.158769 121.501538 70.498462 171.835077 103.187692 178.136615 115.160616 12.603077 24.576 13.233231 425.511385 0 450.717538-6.301538 11.933538-40.920615 35.84-111.419076 76.8-145.408 84.322462-134.695385 71.128615-134.065231 163.012923 0.630154 51.593846-1.890462 76.169846-6.301539 75.539692-3.780923 0-46.552615-23.906462-95.035077-52.263384z m-113.939692-264.349539c24.536615-10.082462 30.208-17.644308 35.249231-47.222154 3.150769-20.125538 8.822154-25.206154 69.238154-61.676307 36.509538-21.425231 69.868308-39.030154 74.279384-39.660308 12.603077 0 8.822154-10.082462-8.192-18.904615-13.193846-6.892308-16.974769-6.892308-26.387692 1.260307-16.384 13.233231-112.088615 68.017231-119.650462 68.017231-3.741538 0-14.454154-3.780923-23.906461-8.822154-33.988923-17.644308-78.060308 10.673231-78.690462 51.593846 0 27.096615 8.822154 42.811077 30.208 54.153847 21.425231 11.933538 22.685538 11.933538 47.852308 1.260307z m270.060308-165.572923c15.084308-13.824 22.646154-45.292308 15.753846-64.827077-13.863385-36.509538-44.110769-50.963692-75.579077-35.24923-22.055385 11.342769-22.055385 11.342769-116.420923-45.292308-52.893538-30.877538-58.564923-35.918769-58.564923-52.893539 0-25.206154-30.208-55.374769-55.374769-55.374769-11.342769 0-27.096615 6.892308-38.4 16.344616-51.003077 42.811077 2.520615 124.652308 61.676307 93.774769 19.495385-10.043077 19.495385-10.043077 95.035077 34.658461 63.606154 37.100308 75.539692 47.182769 75.539693 59.785846 0 52.224 59.195077 82.432 96.334769 49.073231z" p-id="2262" fill="#1296db"></path></svg>