<?xml version="1.0" standalone="no"?><!DOCTYPE svg PUBLIC "-//W3C//DTD SVG 1.1//EN" "http://www.w3.org/Graphics/SVG/1.1/DTD/svg11.dtd"><svg t="1744490256157" class="icon" viewBox="0 0 1024 1024" version="1.1" xmlns="http://www.w3.org/2000/svg" p-id="2698" xmlns:xlink="http://www.w3.org/1999/xlink" width="200" height="200"><path d="M123.392 388.821333a42.666667 42.666667 0 0 1 33.216 50.346667 362.816 362.816 0 0 0 596.010667 344.32 42.666667 42.666667 0 1 1 56.597333 63.872A448.149333 448.149333 0 0 1 288 899.989333 448.149333 448.149333 0 0 1 73.002667 422.037333a42.666667 42.666667 0 0 1 50.389333-33.216z m425.28-110.805333l1.621333 3.264 171.328 384a42.666667 42.666667 0 0 1-76.437333 37.76l-1.493333-2.986667-36.778667-82.474666c-3.093333 0.725333-6.293333 1.088-9.578667 1.088h-170.666666c-3.392 0-6.677333-0.384-9.813334-1.130667l-36.501333 82.410667a42.666667 42.666667 0 0 1-53.184 22.976l-3.114667-1.237334a42.666667 42.666667 0 0 1-22.976-53.184l1.237334-3.114666 170.005333-384c14.464-32.661333 59.733333-33.834667 76.373333-3.370667zM736 124.032a448.149333 448.149333 0 0 1 214.933333 478.186667 42.666667 42.666667 0 0 1-83.584-17.194667 362.816 362.816 0 0 0-596.266666-344.234667 42.666667 42.666667 0 1 1-56.682667-63.786666A448.149333 448.149333 0 0 1 736 124.010667z m-224.533333 279.68l-57.386667 129.6h115.2l-57.813333-129.6z" fill="#ffffff" p-id="2699"></path></svg>