<?xml version="1.0" standalone="no"?><!DOCTYPE svg PUBLIC "-//W3C//DTD SVG 1.1//EN" "http://www.w3.org/Graphics/SVG/1.1/DTD/svg11.dtd"><svg t="1682970827422" class="icon" viewBox="0 0 1024 1024" version="1.1" xmlns="http://www.w3.org/2000/svg" p-id="5446" xmlns:xlink="http://www.w3.org/1999/xlink" width="200" height="200"><path d="M682.666667 384V298.666667a170.666667 170.666667 0 0 0-341.12-8.533334L341.333333 298.666667v85.333333h341.333334z m170.666666 85.333333H170.666667v426.666667h682.666666V469.333333z m-341.333333 85.333334a42.666667 42.666667 0 0 1 42.666667 42.666666v170.666667a42.666667 42.666667 0 0 1-85.333334 0v-170.666667a42.666667 42.666667 0 0 1 42.666667-42.666666zM256 298.666667a256 256 0 1 1 512 0v85.333333h85.333333a85.333333 85.333333 0 0 1 85.333334 85.333333v426.666667a85.333333 85.333333 0 0 1-85.333334 85.333333H170.666667a85.333333 85.333333 0 0 1-85.333334-85.333333V469.333333a85.333333 85.333333 0 0 1 85.333334-85.333333h85.333333V298.666667z" fill="#ffffff" p-id="5447"></path></svg>