<?xml version="1.0" standalone="no"?><!DOCTYPE svg PUBLIC "-//W3C//DTD SVG 1.1//EN" "http://www.w3.org/Graphics/SVG/1.1/DTD/svg11.dtd"><svg t="1748579403604" class="icon" viewBox="0 0 1024 1024" version="1.1" xmlns="http://www.w3.org/2000/svg" p-id="3762" xmlns:xlink="http://www.w3.org/1999/xlink" width="200" height="200"><path d="M64 480L224 64h76.8l160 416h-70.4l-41.6-112H176L131.2 480H64zM262.4 128l-73.6 195.2h144L262.4 128zM630.4 960V544h182.4c86.4 0 128 32 128 99.2 0 51.2-22.4 83.2-73.6 99.2 57.6 12.8 86.4 44.8 89.6 99.2 3.2 80-44.8 121.6-144 118.4h-182.4z m67.2-371.2v134.4H800c51.2 0 76.8-22.4 76.8-70.4 0-44.8-25.6-67.2-80-64h-99.2z m105.6 182.4h-105.6v147.2h112c57.6 0 86.4-22.4 86.4-70.4-3.2-51.2-32-76.8-92.8-76.8zM809.6 412.8c-12.8 0-25.6-9.6-25.6-25.6V118.4h-259.2c-12.8 0-25.6-9.6-25.6-25.6s9.6-25.6 25.6-25.6h284.8c12.8 0 25.6 9.6 25.6 25.6v294.4c0 16-9.6 25.6-25.6 25.6z" p-id="3763" fill="#ffffff"></path><path d="M809.6 470.4c-6.4 0-12.8-3.2-19.2-6.4l-99.2-105.6c-9.6-9.6-9.6-25.6 0-35.2 9.6-9.6 25.6-9.6 35.2 0l83.2 89.6 86.4-86.4c9.6-9.6 25.6-9.6 35.2 0 9.6 9.6 9.6 25.6 0 35.2l-102.4 102.4c-6.4 6.4-12.8 6.4-19.2 6.4zM524.8 924.8H240c-12.8 0-25.6-9.6-25.6-25.6v-294.4c0-12.8 9.6-25.6 25.6-25.6s25.6 9.6 25.6 25.6v272h259.2c12.8 0 25.6 9.6 25.6 25.6s-12.8 22.4-25.6 22.4z" p-id="3764" fill="#ffffff"></path><path d="M342.4 678.4c-6.4 0-12.8-3.2-19.2-6.4l-83.2-89.6-86.4 86.4c-9.6 9.6-25.6 9.6-35.2 0s-9.6-25.6 0-35.2l102.4-102.4c3.2-3.2 9.6-6.4 16-6.4s12.8 3.2 16 6.4l99.2 105.6c9.6 9.6 9.6 25.6 0 35.2 0 3.2-3.2 6.4-9.6 6.4z" p-id="3765" fill="#ffffff"></path></svg>