<?xml version="1.0" standalone="no"?><!DOCTYPE svg PUBLIC "-//W3C//DTD SVG 1.1//EN" "http://www.w3.org/Graphics/SVG/1.1/DTD/svg11.dtd"><svg t="1682971090335" class="icon" viewBox="0 0 1024 1024" version="1.1" xmlns="http://www.w3.org/2000/svg" p-id="5633" xmlns:xlink="http://www.w3.org/1999/xlink" width="200" height="200"><path d="M771.232507 298.168423h-427.760372v-51.914554A168.673692 168.673692 0 0 1 675.278078 204.158359a38.887307 38.887307 0 0 0 75.246939-19.443653 246.351087 246.351087 0 0 0-484.827495 61.539163v51.914554H252.767493a155.549226 155.549226 0 0 0-155.549227 155.549226v414.733125a155.549226 155.549226 0 0 0 155.549227 155.549226h518.465014a155.549226 155.549226 0 0 0 155.549227-155.549226V453.717649a155.549226 155.549226 0 0 0-155.549227-155.549226z m77.774613 570.282351v7.485806a77.774613 77.774613 0 0 1-77.774613 70.288807h-525.950821a77.774613 77.774613 0 0 1-70.288806-77.774613V446.231843a77.774613 77.774613 0 0 1 77.774613-70.288807h525.950821a77.774613 77.774613 0 0 1 70.288806 77.774613z" p-id="5634" fill="#ffffff"></path><path d="M512.048609 505.534985a103.73189 103.73189 0 0 0-38.887306 199.880756v64.650147a38.887307 38.887307 0 0 0 77.774613-5.249786v-59.400361l7.388588-3.402639A103.634672 103.634672 0 0 0 512.048609 505.534985z m0 129.591949a25.957277 25.957277 0 1 1 25.860059-25.860058 25.860059 25.860059 0 0 1-25.860059 25.860058z" p-id="5635" fill="#ffffff"></path></svg>